<svg xmlns="http://www.w3.org/2000/svg" height="512pt" version="1.1" viewBox="0 -68 512 512" width="512pt">
<g id="surface1">
<path d="M 148.226562 87.679688 C 203.605469 -51.929688 518.113281 -38.964844 504.042969 368.109375 L 97.972656 368.109375 C 97.972656 308.808594 173.355469 280.664062 118.074219 217.34375 Z M 148.226562 87.679688 " style=" stroke:none;fill-rule:nonzero;fill:rgb(28.235294%,34.509804%,46.666667%);fill-opacity:1;" />
<path d="M 259.878906 8.660156 C 361.5 20.453125 472.53125 122.601562 464.042969 368.109375 L 504.042969 368.109375 C 513.667969 89.730469 369.628906 -4.332031 259.878906 8.660156 Z M 259.878906 8.660156 " style=" stroke:none;fill-rule:nonzero;fill:rgb(20%,25.098039%,37.647059%);fill-opacity:1;" />
<path d="M 136.820312 136.734375 L 48.21875 164.070312 C 48.21875 164.070312 64.800781 217.34375 118.074219 217.34375 L 162.804688 217.34375 C 192.222656 217.34375 216.074219 193.492188 216.074219 164.070312 Z M 136.820312 136.734375 " style=" stroke:none;fill-rule:nonzero;fill:rgb(16.862745%,21.176471%,32.156863%);fill-opacity:1;" />
<path d="M 216.074219 164.070312 L 7.511719 164.070312 C 6.507812 129.394531 65.304688 60.039062 148.230469 87.679688 C 165.316406 122.359375 216.074219 122.859375 216.074219 164.070312 Z M 216.074219 164.070312 " style=" stroke:none;fill-rule:nonzero;fill:rgb(20%,25.098039%,37.647059%);fill-opacity:1;" />
<path d="M 237.222656 119.292969 L 237.222656 139.148438 C 237.222656 143.289062 240.582031 146.648438 244.722656 146.648438 C 248.863281 146.648438 252.222656 143.289062 252.222656 139.148438 L 252.222656 119.292969 C 252.222656 115.148438 248.863281 111.792969 244.722656 111.792969 C 240.582031 111.792969 237.222656 115.148438 237.222656 119.292969 Z M 237.222656 119.292969 " style=" stroke:none;fill-rule:nonzero;fill:rgb(0%,0%,0%);fill-opacity:1;" />
<path d="M 7.511719 171.554688 L 43.054688 171.554688 C 45.386719 177.097656 49.910156 186.25 57.347656 195.417969 C 72.1875 213.710938 91.902344 223.796875 114.535156 224.746094 C 142.289062 258.230469 129.390625 279.414062 113.15625 306.058594 C 102.527344 323.507812 90.472656 343.285156 90.472656 368.097656 C 90.472656 372.238281 93.832031 375.597656 97.972656 375.597656 L 504.046875 375.597656 C 508.085938 375.597656 511.402344 372.394531 511.542969 368.355469 C 512.191406 349.550781 512.148438 331.054688 511.421875 313.375 C 511.25 309.238281 507.738281 306.023438 503.617188 306.191406 C 499.480469 306.363281 496.261719 309.855469 496.433594 313.996094 C 497.054688 329.023438 497.164062 344.667969 496.765625 360.597656 L 105.933594 360.597656 C 108.050781 343.269531 117.140625 328.347656 125.96875 313.863281 C 134.570312 299.742188 143.464844 285.144531 145.429688 268.738281 C 147.175781 254.144531 143.199219 239.679688 133.308594 224.828125 L 162.804688 224.828125 C 196.3125 224.828125 223.578125 197.566406 223.578125 164.058594 C 223.578125 141.402344 207.582031 126.59375 189.742188 115.261719 C 179.996094 109.078125 169.667969 103.234375 161.902344 94.519531 C 159.894531 92.265625 158.074219 89.828125 156.53125 87.230469 C 167.148438 62.777344 186.449219 43.097656 212.546875 30.175781 C 239.421875 16.871094 271.820312 12.089844 303.769531 16.714844 C 335.992188 21.382812 383.066406 37.523438 424.324219 87.941406 C 463.429688 135.730469 487.035156 201.8125 494.488281 284.359375 C 494.859375 288.484375 498.511719 291.53125 502.632812 291.15625 C 506.757812 290.78125 509.800781 287.136719 509.425781 283.011719 C 501.699219 197.421875 476.972656 128.59375 435.933594 78.441406 C 401.363281 36.199219 355.191406 9.003906 305.917969 1.871094 C 270.988281 -3.1875 235.464844 2.09375 205.890625 16.734375 C 177.953125 30.566406 156.210938 52.355469 144.003906 78.550781 C 94.957031 64.820312 58.765625 83.953125 41.175781 97.023438 C 16.328125 115.484375 -0.597656 143.140625 0.015625 164.273438 C 0.132812 168.328125 3.457031 171.554688 7.511719 171.554688 Z M 50.121094 109.066406 C 65.820312 97.398438 98.519531 80.1875 143.035156 93.875 C 143.054688 93.910156 143.078125 93.941406 143.097656 93.976562 C 149.03125 104.628906 158.6875 112.808594 168.652344 119.550781 C 178.121094 125.960938 188.496094 131.332031 197.027344 139.027344 C 202.207031 143.714844 206.320312 149.515625 207.808594 156.425781 C 207.816406 156.46875 207.824219 156.511719 207.832031 156.554688 L 161.765625 156.554688 C 157.625 156.554688 154.265625 159.914062 154.265625 164.054688 C 154.265625 168.070312 157.753906 171.554688 161.765625 171.554688 L 207.953125 171.554688 C 206.578125 179.863281 202.886719 187.6875 197.355469 194.042969 C 188.722656 203.960938 175.960938 209.828125 162.804688 209.828125 L 118.078125 209.828125 C 84.027344 209.828125 66.71875 185.609375 59.539062 171.554688 C 59.539062 171.554688 131.699219 171.554688 131.765625 171.554688 C 135.800781 171.554688 139.265625 168.082031 139.265625 164.054688 C 139.265625 159.914062 135.910156 156.554688 131.765625 156.554688 L 15.699219 156.554688 C 19.164062 139.695312 34.949219 120.335938 50.121094 109.066406 Z M 50.121094 109.066406 " style=" stroke:none;fill-rule:nonzero;fill:rgb(0%,0%,0%);fill-opacity:1;" />
</g>
</svg>